<svg width="1068" height="1024" viewBox="0 0 1068 1024" fill="none" xmlns="http://www.w3.org/2000/svg">
<path d="M656.5 636.517C602.333 572.677 552 177.787 770 294.763C988 411.739 974 353.664 874 223.5C774 93.3355 863.5 -43.5 863.5 -43.5L1438 -246L1855 223.5C1844.81 239.328 896.321 1096.08 37.0745 1108.98C26.443 1116.53 14.3837 1117.46 0 1109.01C12.3376 1109.18 24.6968 1109.17 37.0745 1108.98C91.6102 1070.27 108.577 857.435 209 843.519C276.657 834.143 732.398 725.969 656.5 636.517Z" fill="#613AFF"/>
<path d="M719.5 682.79C665.333 627.123 615 282.79 833 384.79C1051 486.79 1025 292.5 925 179C825 65.5002 1091.5 -77 1091.5 -77L1180 1065.79C1169.81 1079.59 938.457 1104.48 99.3435 1095.21C88.8907 1101.38 77.055 1101.99 63 1094.79C75.2393 1094.94 87.3534 1095.08 99.3435 1095.21C154.461 1062.66 171.13 875.479 272 863.29C339.657 855.115 795.398 760.79 719.5 682.79Z" fill="#1C0675"/>
<path d="M863 771C808.833 715.333 758.5 371 976.5 473C1194.5 575 1261 559 1161 445.5C1061 332 1274.5 370.5 1274.5 370.5L1323.5 1154C1313.31 1167.8 1081.96 1192.69 242.843 1183.42C232.391 1189.59 220.555 1190.2 206.5 1183C218.739 1183.15 230.853 1183.29 242.843 1183.42C297.961 1150.87 314.63 963.689 415.5 951.5C483.157 943.325 938.898 849 863 771Z" fill="#08031F"/>
</svg>
